Coordinates
version=1
nRows=14
nColumns=24
inDegrees=yes

Units are S.I. units (second, meters, Newtons, ...)
Angles are in degrees.

endheader
time	pelvis_tilt	pelvis_list	pelvis_rotation	pelvis_tx	pelvis_ty	pelvis_tz	hip_flexion_r	hip_adduction_r	hip_rotation_r	knee_angle_r	ankle_angle_r	subtalar_angle_r	mtp_angle_r	hip_flexion_l	hip_adduction_l	hip_rotation_l	knee_angle_l	ankle_angle_l	subtalar_angle_l	mtp_angle_l	lumbar_extension	lumbar_bending	lumbar_rotation
      5.80000000	    -12.81631241	      8.76154138	      3.08934372	     -0.42457288	     -0.03498779	      2.03331254	     16.75628352	    -14.25762738	    -12.54438418	    -58.96173308	    -26.16483887	     -7.30505435	     30.89499168	     29.83456757	     14.66649937	     -0.37020966	    -21.17310491	      9.64841073	     -1.98546241	    -55.31920231	      9.47513227	     -9.92886478	     -1.35175017
      5.81000000	    -12.68876551	      8.76972283	      2.92565758	     -0.41224576	     -0.03283108	      2.03356942	     18.48739326	    -14.01287738	    -11.42731837	    -60.46885296	    -24.06272129	     -8.43325624	     29.23399741	     28.53558107	     14.49806750	     -0.78699329	    -20.63631806	     10.69168781	     -1.20892789	    -56.62702431	      9.27985762	     -9.91273158	     -1.48113288
      5.82000000	    -12.52375436	      8.76056484	      2.72129866	     -0.40002698	     -0.03056038	      2.03371311	     20.15406927	    -13.73159097	    -10.34451171	    -61.59521575	    -22.27659242	     -9.25899006	     29.25312034	     27.09923186	     14.37258921	     -0.91811674	    -19.89780724	     11.28902779	     -0.86469475	    -56.73363240	      9.04005916	     -9.84201982	     -1.57486424
      5.83000000	    -12.48871394	      8.71542041	      2.55485138	     -0.38785280	     -0.02847931	      2.03382081	     21.93461066	    -13.40794209	     -9.38140840	    -62.46280880	    -20.46024211	     -9.78874112	     28.37379319	     25.72494727	     14.27273555	     -0.77768645	    -19.01129484	     11.78066283	     -0.79709109	    -57.10576530	      8.94617260	     -9.74346813	     -1.62401542
      5.84000000	    -12.35349421	      8.61156405	      2.47929103	     -0.37579892	     -0.02639035	      2.03365928	     23.50205970	    -13.07108818	     -8.59718143	    -62.98695580	    -18.68585181	     -9.86095933	     28.45187595	     24.18824386	     14.21467599	     -0.29523201	    -18.03055226	     12.05626824	     -1.06189863	    -57.04033292	      8.70563858	     -9.57512968	     -1.87192442
      5.85000000	    -12.23089089	      8.44781079	      2.41069971	     -0.36374292	     -0.02441552	      2.03345676	     24.99881669	    -12.67072647	     -7.94055846	    -63.18135926	    -16.93431833	     -9.80705921	     28.54001282	     22.63658707	     14.11946541	      0.34289342	    -16.98504356	     12.19441768	     -1.55560963	    -56.84424517	      8.48746797	     -9.34163055	     -2.06508165
      5.86000000	    -12.06155026	      8.19798369	      2.42780485	     -0.35178713	     -0.02254625	      2.03312148	     26.31927117	    -12.22658075	     -7.51384093	    -63.03993723	    -15.17225858	     -9.66762000	     28.64804807	     21.05804063	     13.97529328	      1.15187443	    -15.98238922	     12.25074009	     -2.16643457	    -56.33531235	      8.19248015	     -9.03023105	     -2.30771291
      5.87000000	    -11.89911509	      7.83333786	      2.49806231	     -0.33987203	     -0.02073940	      2.03266013	     27.51757554	    -11.69057150	     -7.25516496	    -62.53810782	    -13.51995075	     -9.46339152	     28.73680876	     19.52557370	     13.72590760	      1.92945348	    -15.03353444	     11.69706697	     -2.85928281	    -52.71836811	      7.89718536	     -8.59755151	     -2.65787101
      5.88000000	    -11.81919538	      7.40201060	      2.67758716	     -0.32809433	     -0.01922731	      2.03218397	     28.69567910	    -11.14815654	     -7.19744242	    -61.75225441	    -11.97921778	     -9.25255777	     28.94540381	     18.17516913	     13.38015273	      2.60151674	    -14.24383387	     11.92144895	     -3.15514223	    -52.61309364	      7.66222247	     -8.13191170	     -3.08890034
      5.89000000	    -11.62477920	      6.90438620	      2.90045252	     -0.31636023	     -0.01767428	      2.03167588	     29.62072370	    -10.58252184	     -7.33212608	    -60.62784133	    -10.72843292	     -9.20879686	     29.00611310	     16.72435410	     12.95437554	      3.29591735	    -13.47960802	     12.10143962	     -3.43127620	    -52.30808981	      7.29431913	     -7.60148721	     -3.52046966
      5.90000000	    -11.52368585	      6.39848784	      3.22007967	     -0.30468547	     -0.01641867	      2.03106246	     30.55977592	    -10.10279181	     -7.62937565	    -59.28394062	     -9.62735217	     -9.08660109	     28.92881682	     15.43430815	     12.50680685	      3.84301086	    -12.81204502	     12.38628934	     -3.42882603	    -52.02330349	      7.01808310	     -7.07964673	     -4.03837568
      5.91000000	    -11.37419221	      5.88330068	      3.56273245	     -0.29307177	     -0.01530545	      2.03043172	     31.36346987	     -9.66004827	     -8.05107171	    -57.70972717	     -8.72168078	     -9.03493174	     28.57243171	     14.12149195	     12.03035628	      4.36657739	    -12.17574821	     12.69944536	     -3.38655825	    -51.70886046	      6.68499609	     -6.54663037	     -4.56044320
      5.92000000	    -11.14048633	      5.38997731	      3.86961659	     -0.28149116	     -0.01434589	      2.02987374	     32.00837902	     -9.23610817	     -8.50385680	    -55.94777526	     -7.84465960	     -8.94534464	     27.54242891	     12.73529957	     11.54571619	      4.86368456	    -11.54626877	     13.00589869	     -3.39546305	    -51.26677127	      6.26407843	     -6.02145390	     -5.02542089
      5.93000000	    -11.19767033	      4.89248782	      4.33364540	     -0.27002062	     -0.01397502	      2.02918199	     32.88933396	     -8.94257394	     -9.13706092	    -54.02599656	     -7.10804406	     -8.80629418	     27.09297749	     11.76211583	     11.07789731	      5.32160991	    -11.09381402	     13.49205854	     -3.15115786	    -51.03323404	      6.14586097	     -5.53549699	     -5.59474283
